<?xml version="1.0" encoding="UTF-8" standalone="no"?>
<!DOCTYPE svg PUBLIC "-//W3C//DTD SVG 1.1//EN" "http://www.w3.org/Graphics/SVG/1.1/DTD/svg11.dtd">
<svg version="1.1" xmlns="http://www.w3.org/2000/svg" xmlns:xlink="http://www.w3.org/1999/xlink" preserveAspectRatio="xMidYMid meet" viewBox="41.05882352941177 142.52941176470597 393.7058823529412 314.2941176470589" width="389.71" height="310.29"><defs><path d="M337.65 208.97C337.65 245.09 284.93 274.41 220 274.41C155.07 274.41 102.35 245.09 102.35 208.97C102.35 172.85 155.07 143.53 220 143.53C284.93 143.53 337.65 172.85 337.65 208.97Z" id="a1SRiaN7K9"></path><path d="M86.18 333.24L283.24 333.24L283.24 453.82L86.18 453.82L86.18 333.24Z" id="b1nOc4KGUD"></path><path d="M86.18 393.53C78.82 393.53 64.12 393.53 42.06 393.53L42.06 312.65L431.76 312.65L431.76 214.12L337.65 214.12" id="e3j8EaNkO2"></path><text id="b2knBFF6ix" x="215.59" y="195" font-size="14" font-family="Open Sans" font-weight="normal" font-style="normal" letter-spacing="0" alignment-baseline="before-edge" transform="matrix(1 0 0 1 0 0)" style="line-height:100%" xml:space="preserve" dominant-baseline="text-before-edge"><tspan x="215.59" dy="0em" alignment-baseline="before-edge" dominant-baseline="text-before-edge" text-anchor="start">Vco</tspan></text><style id="opensansnormalnormal">
    
    </style></defs><g><g><use xlink:href="#a1SRiaN7K9" opacity="1" fill="#ffffff" fill-opacity="0"></use><g><use xlink:href="#a1SRiaN7K9" opacity="1" fill-opacity="0" stroke="#000000" stroke-width="1" stroke-opacity="1"></use></g></g><g><use xlink:href="#b1nOc4KGUD" opacity="1" fill="#acc582" fill-opacity="1"></use></g><g><g><use xlink:href="#e3j8EaNkO2" opacity="1" fill-opacity="0" stroke="#000000" stroke-width="1" stroke-opacity="1"></use></g></g><g id="bjhp1dCZz"><use xlink:href="#b2knBFF6ix" opacity="1" fill="#1a194c" fill-opacity="1"></use></g></g></svg>